<!--?xml version="1.0" encoding="utf-8"?-->
<!-- Generator: Adobe Illustrator 18.1.1, SVG Export Plug-In . SVG Version: 6.00 Build 0)  -->

<svg version="1.1" id="_x32_" xmlns="http://www.w3.org/2000/svg" xmlns:xlink="http://www.w3.org/1999/xlink" x="0px" y="0px" viewBox="0 0 512 512" style="width: 256px; height: 256px; opacity: 1;" xml:space="preserve">
<style type="text/css">
	.st0{fill:#4B4B4B;}
</style>
<g>
	<path class="st0" d="M115.034,181.492h-0.012c-12.278,23.251-18.412,48.897-18.412,74.533c0,25.61,6.121,51.245,18.387,74.508
		l25.648-13.536c-10.014-18.975-15.046-39.986-15.046-60.972c0-21.011,5.032-41.999,15.069-60.997L115.034,181.492z" style="fill: rgb(75, 75, 75);"></path>
	<path class="st0" d="M55.211,149.831l-12.83-6.767l-12.817-6.768l0,0h-0.012v-0.012C9.835,173.658,0,214.853,0,256.025
		c0,0,0,0,0,0.011l0,0c0,41.16,9.847,82.343,29.552,119.681l25.635-13.548c-17.441-33.074-26.198-69.597-26.198-106.133
		c0-11.99,1.037-23.97,2.917-35.84C35.758,195.878,43.466,172.064,55.211,149.831z" style="fill: rgb(75, 75, 75);"></path>
	<path class="st0" d="M512,255.928c0-28.856-4.947-57.677-14.626-85.193c-4.126-11.751-9.026-23.286-14.913-34.451h-0.012l0,0
		l-12.817,6.768l-12.829,6.769c17.452,33.049,26.197,69.572,26.197,106.107c0,36.56-8.745,73.132-26.222,106.229l25.635,13.56
		c8.217-15.584,14.626-31.852,19.418-48.479c5.277-18.292,8.577-37.026,9.709-55.88C511.844,266.218,512,261.08,512,255.928z" style="fill: rgb(75, 75, 75);"></path>
	<path class="st0" d="M371.357,195.003c10.014,18.975,15.032,39.962,15.032,60.974c0,21.01-5.043,41.998-15.069,60.996
		l25.648,13.536c12.278-23.263,18.423-48.897,18.423-74.531c0-25.623-6.121-51.258-18.387-74.509L371.357,195.003z" style="fill: rgb(75, 75, 75);"></path>
	<path class="st0" d="M255.832,207.678c-26.689,0.071-48.251,21.789-48.155,48.478c0.083,26.701,21.79,48.251,48.479,48.167
		c26.688-0.084,48.251-21.802,48.166-48.491C304.239,229.144,282.534,207.581,255.832,207.678z" style="fill: rgb(75, 75, 75);"></path>
</g>
</svg>
